<svg xmlns="http://www.w3.org/2000/svg" version="1.1" xmlns:xlink="http://www.w3.org/1999/xlink" xmlns:svgjs="http://svgjs.com/svgjs" width="512" height="512" x="0" y="0" viewBox="0 0 60 60" style="enable-background:new 0 0 512 512" xml:space="preserve" class=""><g><g xmlns="http://www.w3.org/2000/svg" id="Colour"><g fill="#3c7a84"><path d="m27 4h6v6h-6z" fill="#6aafac" data-original="#3c7a84" class=""></path><path d="m10.332 18.57-1.89-1.889a1.5 1.5 0 0 1 0-2.129l2.11-2.11a1.5 1.5 0 0 1 2.129 0l1.889 1.89z" fill="#6aafac" data-original="#3c7a84" class=""></path><path d="m45.43 14.332 1.889-1.89a1.5 1.5 0 0 1 2.129 0l2.11 2.11a1.5 1.5 0 0 1 0 2.129l-1.89 1.889z" fill="#6aafac" data-original="#3c7a84" class=""></path></g><circle cx="30" cy="34" fill="#8bc1bf" r="25" data-original="#4c97a8" class=""></circle><rect fill="#8bc1bf" height="4" rx="1" width="10" x="25" y="1" data-original="#4c97a8" class=""></rect><circle cx="30" cy="34" fill="#509593" r="21" data-original="#3e676d" class=""></circle><path d="m41 23.5a10.755 10.755 0 0 1 -11 10.5 10.755 10.755 0 0 0 -11 10.5 10.714 10.714 0 0 0 10.3 10.48 21 21 0 0 1 .7-41.98c.23 0 .47.01.7.02a10.714 10.714 0 0 1 10.3 10.48z" fill="#ffe6e6" data-original="#ffffff" class=""></path><path d="m30.7 13.02c-.23-.01-.47-.02-.7-.02" fill="#ffe6e6" data-original="#ffffff" class=""></path><circle cx="30.5" cy="23.5" fill="#509593" r="2.5" data-original="#3e676d" class=""></circle><circle cx="30.5" cy="44.5" fill="#ffe6e6" r="2.5" data-original="#ffffff" class=""></circle></g><g xmlns="http://www.w3.org/2000/svg" id="icons" fill="#373737"><path d="m30 12a22.007 22.007 0 0 0 -14.25 5.238 1 1 0 0 0 1.3 1.524 20 20 0 0 1 12.95-4.762c.354 0 .7.035 1.048.053a9.71 9.71 0 0 1 8.952 9.447 9.771 9.771 0 0 1 -10 9.5 11.771 11.771 0 0 0 -12 11.5 11.148 11.148 0 0 0 2.62 7.153 19.988 19.988 0 0 1 -5.858-30.606 1 1 0 0 0 -1.524-1.3 22 22 0 1 0 16.762-7.747zm0 42c-.354 0-.7-.035-1.048-.053a9.71 9.71 0 0 1 -8.952-9.447 9.771 9.771 0 0 1 10-9.5 11.771 11.771 0 0 0 12-11.5 11.148 11.148 0 0 0 -2.62-7.153 19.993 19.993 0 0 1 -9.38 37.653z" fill="#373737" data-original="#373737" class=""></path><path d="m30 60a25.982 25.982 0 0 0 20.982-41.33l1.283-1.282a2.51 2.51 0 0 0 0-3.543l-2.11-2.11a2.51 2.51 0 0 0 -3.543 0l-1.282 1.283a25.866 25.866 0 0 0 -11.33-4.71v-2.308a2 2 0 0 0 2-2v-2a2 2 0 0 0 -2-2h-8a2 2 0 0 0 -2 2v2a2 2 0 0 0 2 2v2.308a25.866 25.866 0 0 0 -11.33 4.71l-1.282-1.283a2.51 2.51 0 0 0 -3.543 0l-2.11 2.11a2.51 2.51 0 0 0 0 3.543l1.283 1.282a25.982 25.982 0 0 0 20.982 41.33zm0-2a24 24 0 1 1 24-24 24.028 24.028 0 0 1 -24 24zm18.026-44.851a.5.5 0 0 1 .715 0l2.11 2.11a.5.5 0 0 1 0 .715l-1.121 1.126a26.346 26.346 0 0 0 -2.825-2.825zm-22.026-11.149h8v2h-8zm2 4h4v2.085c-.661-.051-1.326-.085-2-.085s-1.339.034-2 .085zm-18.851 9.974a.5.5 0 0 1 0-.715l2.11-2.11a.5.5 0 0 1 .715 0l1.126 1.121a26.346 26.346 0 0 0 -2.83 2.83z" fill="#373737" data-original="#373737" class=""></path><path d="m34 23.5a3.5 3.5 0 1 0 -3.5 3.5 3.5 3.5 0 0 0 3.5-3.5zm-5 0a1.5 1.5 0 1 1 1.5 1.5 1.5 1.5 0 0 1 -1.5-1.5z" fill="#373737" data-original="#373737" class=""></path><path d="m30.5 41a3.5 3.5 0 1 0 3.5 3.5 3.5 3.5 0 0 0 -3.5-3.5zm0 5a1.5 1.5 0 1 1 1.5-1.5 1.5 1.5 0 0 1 -1.5 1.5z" fill="#373737" data-original="#373737" class=""></path></g></g></svg>