<svg xmlns="http://www.w3.org/2000/svg" version="1.1" xmlns:xlink="http://www.w3.org/1999/xlink" xmlns:svgjs="http://svgjs.com/svgjs" width="512" height="512" x="0" y="0" viewBox="0 0 60 60" style="enable-background:new 0 0 512 512" xml:space="preserve" class=""><g transform="matrix(-0.9999999999999999,2.449293598294706e-16,2.449293598294706e-16,0.9999999999999999,59.99999999999997,7.105427357601002e-15)"><path xmlns="http://www.w3.org/2000/svg" d="m14 17.175a16.094 16.094 0 0 1 15.731-16.175h.269a29 29 0 0 1 0 58l-12.668-26.92a35.005 35.005 0 0 1 -3.332-14.905z" fill="#ffe6e6" data-original="#c0dadc" class=""></path><path xmlns="http://www.w3.org/2000/svg" d="m45 44.5c0 8.01-6.97 14.26-15 14.5a29 29 0 0 1 0-58c-8.03.24-15 6.49-15 14.5a14.5 14.5 0 0 0 14.5 14.5h1a14.5 14.5 0 0 1 14.5 14.5z" fill="#509593" data-original="#3b3b4f" class=""></path><circle xmlns="http://www.w3.org/2000/svg" cx="29.5" cy="15.5" fill="#509593" r="6.5" data-original="#3b3b4f" class=""></circle><circle xmlns="http://www.w3.org/2000/svg" cx="30.5" cy="44.5" fill="#ffe6e6" r="6.5" data-original="#c0dadc" class=""></circle></g></svg>