<?xml version="1.0" encoding="UTF-8" standalone="no"?>
<svg
   xmlns:dc="http://purl.org/dc/elements/1.1/"
   xmlns:cc="http://creativecommons.org/ns#"
   xmlns:rdf="http://www.w3.org/1999/02/22-rdf-syntax-ns#"
   xmlns:svg="http://www.w3.org/2000/svg"
   xmlns="http://www.w3.org/2000/svg"
   width="96"
   height="96"
   viewBox="0 0 25.400001 25.4"
   version="1.1"
   id="svg8">
  <defs
     id="defs2" />
  <metadata
     id="metadata5">
    <rdf:RDF>
      <cc:Work
         rdf:about="">
        <dc:format>image/svg+xml</dc:format>
        <dc:type
           rdf:resource="http://purl.org/dc/dcmitype/StillImage" />
        <dc:title></dc:title>
      </cc:Work>
    </rdf:RDF>
  </metadata>
  <g
     transform="translate(-241.88077,56.28964)"
     id="layer1">
    <g
       transform="translate(3.3072951)"
       id="g938">
      <path
         id="path5322"
         class=""
         data-original="#e3cb5b"
         d="m 260.07987,-39.913837 a 8.8899999,8.8899999 0 0 1 -17.77577,-0.289136 c 0,-3.021754 1.6383,-5.514764 3.81,-7.29615 4.04622,-3.311314 4.45135,-6.436784 4.36753,-7.906597 a 0.42926,0.42926 0 0 1 0.67141,-0.381 c 1.22766,0.851747 4.191,3.187277 2.83633,8.586893 a 1.9401367,1.9401367 0 0 0 1.84573,2.52222 1.9397133,1.9397133 0 0 0 1.82034,-1.27 l 0.15663,-0.427566 a 0.25654,0.25654 0 0 1 0.44238,-0.07324 c 1.19973,1.564217 1.89188,4.388697 1.82542,6.534573 z"
         style="fill:#ff4447;fill-opacity:1;stroke-width:0.42333332" />
      <circle
         id="circle5324"
         class=""
         data-original="#ffffff"
         r="5.5033331"
         cy="-38.50964"
         cx="251.19411"
         style="fill:#deeded;stroke-width:0.42333332" />
      <g
         style="fill:#373737"
         id="icons-0"
         transform="matrix(0.42333333,0,0,0.42333333,238.4941,-56.28964)">
        <path
           style="fill:#373737"
           d="M 17.365,19.994 C 11.326,24.95 8,31.346 8,38 a 22,22 0 0 0 21.984,22 q 0.628,0 1.261,-0.035 A 22.124,22.124 0 0 0 51.988,38.714 C 52.141,33.851 50.637,26.765 47.469,22.635 a 1.6,1.6 0 0 0 -1.5,-0.6 1.618,1.618 0 0 0 -1.275,1.041 l -0.37,1.007 a 3.628,3.628 0 0 1 -4.95,1.969 3.672,3.672 0 0 1 -1.8,-4.337 c 2.335,-9.283 -0.052,-16.467 -7.1,-21.35 a 2,2 0 0 0 -2.123,-0.1 2.014,2.014 0 0 0 -1.033,1.887 c 0.164,2.872 -0.523,8.66 -6.969,15.15 a 1.0005623,1.0005623 0 1 0 1.42,1.41 c 6.992,-7.042 7.729,-13.47 7.565,-16.7 6.288,4.359 8.406,10.826 6.3,19.218 a 5.58,5.58 0 0 0 5.33,7.2 5.606,5.606 0 0 0 5.236,-3.66 l 0.115,-0.314 c 2.273,3.4 3.829,9.325 3.677,14.2 A 20.114,20.114 0 0 1 31.135,57.969 20,20 0 0 1 10,38 c 0,-7.751 4.7,-13.231 8.635,-16.462 a 1.0007633,1.0007633 0 0 0 -1.27,-1.547 z"
           data-original="#373737"
           class=""
           id="path5327" />
        <path
           style="fill:#373737"
           d="M 30,56 A 14,14 0 1 0 16,42 14.015,14.015 0 0 0 30,56 Z M 30,30 A 12,12 0 1 1 18,42 12.013,12.013 0 0 1 30,30 Z"
           data-original="#373737"
           class=""
           id="path5329" />
        <path
           style="fill:#373737"
           d="m 30,35 a 1,1 0 0 0 1,-1 v -1 a 1,1 0 0 0 -2,0 v 1 a 1,1 0 0 0 1,1 z"
           data-original="#373737"
           class=""
           id="path5331" />
        <path
           style="fill:#373737"
           d="m 23.636,37.05 a 1,1 0 1 0 1.414,-1.414 l -0.707,-0.707 a 1,1 0 0 0 -1.414,1.414 z"
           data-original="#373737"
           class=""
           id="path5333" />
        <path
           style="fill:#373737"
           d="m 21,43 h 1 a 1,1 0 0 0 0,-2 h -1 a 1,1 0 0 0 0,2 z"
           data-original="#373737"
           class=""
           id="path5335" />
        <path
           style="fill:#373737"
           d="m 23.636,46.95 -0.707,0.707 a 1,1 0 1 0 1.414,1.414 L 25.05,48.364 A 1,1 0 1 0 23.636,46.95 Z"
           data-original="#373737"
           class=""
           id="path5337" />
        <path
           style="fill:#373737"
           d="m 30,52 a 1,1 0 0 0 1,-1 v -1 a 1,1 0 0 0 -2,0 v 1 a 1,1 0 0 0 1,1 z"
           data-original="#373737"
           class=""
           id="path5339" />
        <path
           style="fill:#373737"
           d="m 35.657,49.071 a 1,1 0 0 0 1.414,-1.414 L 36.364,46.95 a 1,1 0 1 0 -1.414,1.414 z"
           data-original="#373737"
           class=""
           id="path5341" />
        <path
           style="fill:#373737"
           d="m 37,42 a 1,1 0 0 0 1,1 h 1 a 1,1 0 0 0 0,-2 h -1 a 1,1 0 0 0 -1,1 z"
           data-original="#373737"
           class=""
           id="path5343" />
        <path
           style="fill:#373737"
           d="m 35.657,37.343 a 1,1 0 0 0 0.707,-0.293 l 0.707,-0.707 a 1,1 0 0 0 -1.414,-1.414 l -0.707,0.707 a 1,1 0 0 0 0.707,1.707 z"
           data-original="#373737"
           class=""
           id="path5345" />
        <path
           style="fill:#373737"
           d="m 29.553,42.9 2,1 a 1.0004169,1.0004169 0 1 0 0.894,-1.79 L 31,41.382 V 38 a 1,1 0 0 0 -2,0 v 4 a 1,1 0 0 0 0.553,0.9 z"
           data-original="#373737"
           class=""
           id="path5347" />
      </g>
    </g>
  </g>
</svg>
